<?xml version="1.0" encoding="UTF-8" standalone="no"?>
<!DOCTYPE svg PUBLIC "-//W3C//DTD SVG 1.1//EN" "http://www.w3.org/Graphics/SVG/1.1/DTD/svg11.dtd">
<svg width="100%" height="100%" viewBox="0 0 800 600" version="1.1" xmlns="http://www.w3.org/2000/svg" xmlns:xlink="http://www.w3.org/1999/xlink" xml:space="preserve" xmlns:serif="http://www.serif.com/" style="fill-rule:evenodd;clip-rule:evenodd;stroke-miterlimit:2;">
    <g transform="matrix(2.6904,0,0,2.6904,10.8996,6.57298)">
        <g transform="matrix(0.997214,0,0,0.999913,28.4571,-23.7096)">
            <path d="M23.865,113.181C20.211,112.85 16.948,111.624 14.071,109.504C11.196,107.386 8.91,104.504 7.217,100.857C5.545,97.258 4.88,93.783 5.217,90.43C5.555,87.08 6.856,84.08 9.126,81.431C11.393,78.778 14.467,76.693 18.35,75.173C21.989,73.746 25.374,73.01 28.506,72.958C31.635,72.908 34.426,73.55 36.881,74.883C37.513,75.254 37.937,75.674 38.157,76.146C38.488,76.857 38.418,77.636 37.955,78.49C37.747,78.908 37.376,79.222 36.843,79.429C36.017,79.754 35.076,79.703 34.02,79.277C30.15,77.492 25.62,77.615 20.427,79.648C15.916,81.415 12.975,83.951 11.614,87.254C10.251,90.558 10.583,94.389 12.602,98.748C14.604,103.057 17.403,105.933 20.998,107.378C24.593,108.825 28.625,108.674 33.091,106.925C35.564,105.956 37.675,104.697 39.421,103.145C41.167,101.592 42.399,99.864 43.12,97.959C43.572,96.834 44.164,96.125 44.891,95.839C45.327,95.669 45.899,95.669 46.61,95.838C47.552,96.14 48.178,96.621 48.485,97.286C48.772,97.903 48.746,98.528 48.41,99.161C47.001,102.176 45.228,104.664 43.098,106.616C40.964,108.57 38.32,110.165 35.165,111.402C31.283,112.92 27.516,113.516 23.865,113.181Z" style="fill:rgb(96,56,18);fill-rule:nonzero;"/>
        </g>
        <g transform="matrix(0.339937,-0.217956,0.217368,0.340857,-1880.24,301.589)">
            <path d="M4427.12,2141.29C4430.93,2141.29 4433.57,2138.46 4433.57,2134.36L4433.57,2003.99C4433.57,1999.89 4430.93,1997.05 4427.12,1997.05C4423.31,1997.05 4420.68,1999.89 4420.68,2003.99L4420.68,2134.36C4420.68,2138.46 4423.31,2141.29 4427.12,2141.29Z" style="fill:rgb(96,56,18);fill-rule:nonzero;"/>
        </g>
        <g transform="matrix(0.997214,0,0,0.999913,0.402932,0.302928)">
            <path d="M117.243,44.274C119.315,42.173 120.02,39.953 119.353,37.61C118.687,35.265 117.014,33.751 114.341,33.061C111.666,32.374 108.221,32.562 104.002,33.625C100.444,34.523 97.888,35.876 96.332,37.684C94.773,39.493 94.352,41.646 95.06,44.137C95.756,46.58 97.229,48.213 99.478,49.035C101.725,49.856 104.629,49.817 108.189,48.922C112.153,47.922 115.172,46.373 117.243,44.274ZM96.181,53.391C92.751,51.959 90.497,49.346 89.42,45.561C88.357,41.82 89,38.479 91.347,35.535C93.699,32.592 97.438,30.474 102.573,29.177C105.573,28.422 108.339,28.152 110.88,28.365C113.42,28.579 115.517,29.198 117.17,30.226L115.811,25.438C115,22.597 113.432,20.667 111.099,19.653C108.769,18.639 105.774,18.592 102.114,19.515C97.386,20.706 93.605,22.836 90.774,25.903C90.051,26.619 89.409,27.045 88.852,27.189C88.344,27.315 87.779,27.244 87.158,26.974C86.469,26.667 86.026,26.164 85.83,25.465C85.617,24.72 85.767,24.013 86.289,23.346C87.72,21.488 89.731,19.793 92.317,18.258C94.905,16.724 97.671,15.586 100.619,14.842C106.007,13.484 110.53,13.625 114.185,15.269C117.836,16.914 120.282,19.901 121.516,24.24L127.639,45.777C128.194,47.72 127.555,48.926 125.726,49.388C124.911,49.593 124.177,49.498 123.519,49.102C122.861,48.706 122.413,48.087 122.171,47.237L121.407,44.545C119.304,49.029 115.102,52.068 108.799,53.656C103.816,54.912 99.61,54.825 96.181,53.391Z" style="fill:rgb(96,56,18);fill-rule:nonzero;"/>
        </g>
        <g transform="matrix(0.997214,0,0,0.999913,0.402932,0.302928)">
            <path d="M165.848,0.529C166.317,0.922 166.595,1.526 166.676,2.335L167.474,10.32C167.835,13.938 167.491,17.289 166.439,20.367C165.387,23.447 163.715,26.027 161.421,28.112C159.127,30.2 156.403,31.626 153.242,32.395L154.52,45.169C154.6,45.979 154.452,46.631 154.068,47.129C153.686,47.628 153.112,47.922 152.345,48.015C151.621,48.102 151.024,47.949 150.551,47.553C150.079,47.158 149.804,46.555 149.725,45.746L148.446,32.97C145.089,33.03 142.094,32.334 139.469,30.883C136.842,29.432 134.724,27.339 133.114,24.601C131.503,21.864 130.507,18.601 130.128,14.812L129.332,6.828C129.25,6.021 129.399,5.364 129.781,4.867C130.162,4.368 130.716,4.074 131.44,3.987C132.21,3.894 132.828,4.046 133.299,4.442C133.769,4.838 134.047,5.442 134.126,6.25L134.945,14.425C135.447,19.452 137.063,23.221 139.796,25.737C142.527,28.252 146.069,29.25 150.416,28.725C154.723,28.207 157.971,26.384 160.16,23.255C162.347,20.127 163.195,16.07 162.695,11.088L161.879,2.913C161.798,2.105 161.959,1.446 162.362,0.948C162.766,0.445 163.329,0.153 164.052,0.066C164.779,-0.023 165.375,0.132 165.848,0.529Z" style="fill:rgb(96,56,18);fill-rule:nonzero;"/>
        </g>
        <g transform="matrix(0.997214,0,0,0.999913,0.402932,0.302928)">
            <path d="M93.309,85.826C75.524,129.456 -13.726,104.612 5.09,150.83C32.235,217.5 95.638,136.128 101.453,190.466C105.525,228.517 165.637,218.334 192.992,208.099C210.053,201.716 216.993,174.751 234.341,169.527C242.788,166.983 251.762,170.366 260.411,169.043C280.375,165.99 291.747,136.568 284.611,114.574C277.475,92.581 257.096,79.401 237.042,77.278C199.607,73.315 120.454,19.237 93.309,85.826Z" style="fill:rgb(165,134,103);fill-rule:nonzero;"/>
        </g>
        <g transform="matrix(0.997214,0,0,0.999913,0.402932,0.302928)">
            <path d="M93.309,85.826C75.524,129.456 -13.726,104.612 5.09,150.83C32.235,217.5 95.638,136.128 101.453,190.466C105.525,228.517 165.637,218.334 192.992,208.099C210.053,201.716 216.993,174.751 234.341,169.527C242.788,166.983 251.762,170.366 260.411,169.043C280.375,165.99 291.747,136.568 284.611,114.574C277.475,92.581 257.096,79.401 237.042,77.278C199.607,73.315 120.454,19.237 93.309,85.826Z" style="fill:none;stroke:rgb(96,56,18);stroke-width:5px;"/>
        </g>
        <g transform="matrix(0.997214,0,0,0.999913,-20.0529,4.55908)">
            <path d="M124.357,136.756C121.051,134.883 118.492,132.23 116.682,128.797C114.871,125.366 113.967,121.397 113.967,116.891C113.967,112.343 114.871,108.343 116.682,104.889C118.492,101.437 121.051,98.773 124.357,96.899C127.662,95.026 131.484,94.088 135.822,94.088C139.443,94.088 142.78,94.699 145.833,95.92C148.886,97.142 151.276,98.848 153.002,101.036C153.339,101.415 153.508,101.879 153.508,102.426C153.508,103.1 153.212,103.648 152.623,104.068C152.244,104.321 151.822,104.447 151.36,104.447C150.56,104.447 149.886,104.131 149.339,103.5C147.99,101.774 146.158,100.447 143.843,99.521C141.527,98.595 138.854,98.131 135.822,98.131C132.325,98.131 129.294,98.889 126.726,100.404C124.156,101.92 122.188,104.09 120.82,106.911C119.451,109.732 118.767,113.059 118.767,116.891C118.767,120.681 119.451,123.976 120.82,126.776C122.188,129.577 124.167,131.734 126.757,133.25C129.347,134.766 132.389,135.524 135.885,135.524C139.127,135.524 141.958,135.05 144.38,134.103C146.801,133.155 148.707,131.84 150.097,130.155C150.729,129.482 151.402,129.145 152.118,129.145C152.623,129.145 153.044,129.293 153.381,129.586C153.971,130.092 154.266,130.64 154.266,131.229C154.266,131.734 154.076,132.219 153.697,132.682C151.97,134.788 149.518,136.462 146.338,137.703C143.158,138.945 139.675,139.567 135.885,139.567C131.504,139.567 127.662,138.63 124.357,136.756Z" style="fill:rgb(241,242,242);stroke:rgb(241,242,242);stroke-width:2.01px;"/>
        </g>
        <g transform="matrix(0.3124,-0.0415535,0.0414413,0.313245,-1326.69,-341.107)">
            <path d="M4428.49,2141.29C4432.49,2141.29 4435.13,2138.56 4435.13,2134.36L4435.13,2081.92L4472.63,2081.92L4503.78,2137C4505.44,2140.12 4507.2,2141.29 4510.23,2141.29C4514.13,2141.29 4517.06,2138.66 4517.06,2135.14C4517.06,2133.58 4516.57,2132.21 4515.6,2130.36L4486.5,2079.77C4505.34,2074.89 4516.67,2059.85 4516.67,2039.92C4516.67,2014.83 4499.09,1998.71 4471.55,1998.71L4428.49,1998.71C4424.39,1998.71 4421.85,2001.45 4421.85,2005.65L4421.85,2134.36C4421.85,2138.56 4424.48,2141.29 4428.49,2141.29ZM4435.13,2070.1L4435.13,2010.63L4469.99,2010.63C4490.5,2010.63 4502.9,2021.66 4502.9,2040.32C4502.9,2059.16 4490.99,2070.1 4470.48,2070.1L4435.13,2070.1Z" style="fill:rgb(241,242,242);fill-rule:nonzero;stroke:rgb(241,242,242);stroke-width:5.66px;stroke-linejoin:round;"/>
        </g>
        <g transform="matrix(0.997214,0,0,0.999913,0.402932,0.302928)">
            <path d="M179.151,138.903C178.729,138.461 178.519,137.84 178.519,137.04L178.519,112.343C178.519,106.616 180.13,102.142 183.351,98.92C186.573,95.699 191.047,94.088 196.774,94.088C202.459,94.088 206.922,95.71 210.165,98.952C213.407,102.195 215.029,106.658 215.029,112.343L215.029,137.04C215.029,137.84 214.817,138.461 214.397,138.903C213.975,139.346 213.386,139.567 212.629,139.567C211.912,139.567 211.334,139.346 210.891,138.903C210.449,138.461 210.228,137.84 210.228,137.04L210.228,122.828L183.257,122.828L183.257,137.04C183.257,137.84 183.046,138.461 182.625,138.903C182.204,139.346 181.614,139.567 180.856,139.567C180.14,139.567 179.571,139.346 179.151,138.903ZM210.228,118.912L210.228,112.153C210.228,107.648 209.069,104.185 206.754,101.763C204.437,99.342 201.111,98.131 196.774,98.131C192.394,98.131 189.047,99.331 186.731,101.731C184.415,104.131 183.257,107.606 183.257,112.153L183.257,118.912L210.228,118.912Z" style="fill:rgb(241,242,242);stroke:rgb(241,242,242);stroke-width:1.79px;stroke-linejoin:round;"/>
        </g>
        <g transform="matrix(0.997214,0,0,0.999913,0.402932,0.302928)">
            <path d="M229.998,153.336C227.555,152.41 225.766,151.147 224.629,149.547C224.334,149.126 224.187,148.704 224.187,148.284C224.187,147.609 224.523,147.02 225.198,146.515C225.45,146.304 225.829,146.199 226.335,146.199C227.051,146.199 227.724,146.536 228.356,147.21C229.282,148.304 230.639,149.178 232.429,149.831C234.219,150.483 236.125,150.81 238.146,150.81C241.936,150.81 244.936,149.673 247.147,147.399C249.358,145.125 250.464,142.051 250.464,138.177L250.464,133.882C249.158,135.609 247.495,136.925 245.473,137.83C243.452,138.736 241.219,139.188 238.778,139.188C233.64,139.188 229.629,137.725 226.745,134.798C223.86,131.872 222.419,127.797 222.419,122.575L222.419,109.69C222.419,109.058 222.649,108.521 223.113,108.079C223.576,107.637 224.144,107.416 224.818,107.416C225.492,107.416 226.051,107.637 226.493,108.079C226.934,108.521 227.156,109.058 227.156,109.69L227.156,122.575C227.156,126.618 228.176,129.767 230.219,132.019C232.261,134.272 235.114,135.398 238.778,135.398C242.399,135.398 245.199,134.324 247.178,132.176C249.158,130.03 250.147,126.976 250.147,123.018L250.147,110.321C250.147,109.396 250.369,108.669 250.811,108.142C251.253,107.616 251.874,107.353 252.675,107.353C253.432,107.353 254.032,107.616 254.474,108.142C254.917,108.669 255.137,109.396 255.137,110.321L255.137,137.861C255.137,141.188 254.432,144.125 253.021,146.673C251.61,149.22 249.642,151.199 247.116,152.61C244.59,154.021 241.662,154.726 238.336,154.726C235.219,154.726 232.44,154.262 229.998,153.336Z" style="fill:rgb(241,242,242);fill-rule:nonzero;stroke:rgb(241,242,242);stroke-width:1.79px;stroke-linejoin:round;"/>
        </g>
    </g>
</svg>
